HIERARCHY
ROOT hip
{
	OFFSET 0.000000 0.000000 0.000000 
	CHANNELS 6 Xposition Yposition Zposition Xrotation Zrotation Yrotation
	JOINT abdomen
	{
		OFFSET 0.000000 3.402643 0.000000 
		CHANNELS 3 Xrotation Zrotation Yrotation
		JOINT chest
		{
			OFFSET 0.000000 8.438565 -0.680529 
			CHANNELS 3 Xrotation Zrotation Yrotation
			JOINT neck
			{
				OFFSET 0.000000 10.207942 -0.272212 
				CHANNELS 3 Xrotation Zrotation Yrotation
				JOINT head
				{
					OFFSET 0.000000 3.130431 0.000000 
					CHANNELS 3 Xrotation Zrotation Yrotation
					End Site
					{
						OFFSET 0.000000 3.130435 0.000000 
					}
				}
			}
			JOINT lCollar
			{
				OFFSET 3.470700 6.669187 -0.816635 
				CHANNELS 3 Yrotation Zrotation Xrotation
				JOINT lShldr
				{
					OFFSET 3.198488 0.000000 0.000000 
					CHANNELS 3 Zrotation Yrotation Xrotation
					JOINT lForeArm
					{
						OFFSET 10.139888 0.000000 0.000000 
						CHANNELS 3 Yrotation Zrotation Xrotation
						JOINT lHand
						{
							OFFSET 8.370511 0.000000 0.000000 
							CHANNELS 3 Zrotation Yrotation Xrotation
							End Site
							{
								OFFSET 4.083176 0.000000 0.000000 
							}
						}
					}
				}
			}
			JOINT rCollar
			{
				OFFSET -3.470700 6.669187 -0.816635 
				CHANNELS 3 Yrotation Zrotation Xrotation
				JOINT rShldr
				{
					OFFSET -3.198488 0.000000 0.000000 
					CHANNELS 3 Zrotation Yrotation Xrotation
					JOINT rForeArm
					{
						OFFSET -10.139888 0.000000 0.000000 
						CHANNELS 3 Yrotation Zrotation Xrotation
						JOINT rHand
						{
							OFFSET -8.370511 0.000000 0.000000 
							CHANNELS 3 Zrotation Yrotation Xrotation
							End Site
							{
								OFFSET -4.083176 0.000000 0.000000 
							}
						}
					}
				}
			}
		}
	}
	JOINT lThigh
	{
		OFFSET 5.308129 -1.633274 1.361059 
		CHANNELS 3 Xrotation Zrotation Yrotation
		JOINT lShin
		{
			OFFSET -2.041588 -20.007561 0.000000 
			CHANNELS 3 Xrotation Zrotation Yrotation
			JOINT lFoot
			{
				OFFSET 0.000000 -19.190928 -1.224953 
				CHANNELS 3 Xrotation Yrotation Zrotation
				End Site
				{
					OFFSET 0.000000 -2.449906 4.627600 
				}
			}
		}
	}
	JOINT rThigh
	{
		OFFSET -5.308129 -1.633274 1.361059 
		CHANNELS 3 Xrotation Zrotation Yrotation
		JOINT rShin
		{
			OFFSET 2.041588 -20.007561 0.000000 
			CHANNELS 3 Xrotation Zrotation Yrotation
			JOINT rFoot
			{
				OFFSET 0.000000 -19.190928 -1.224953 
				CHANNELS 3 Xrotation Yrotation Zrotation
				End Site
				{
					OFFSET 0.000000 -2.449906 4.627600 
				}
			}
		}
	}
}
MOTION
Frames: 9
Frame Time: 0.033333
-0.249743 45.379654 -14.640800 5.986328 -19.824217 110.488281 24.886280 -14.116914 3.212550 -14.277344 -4.042969 7.617188 23.548512 -56.212978 -5.948257 -23.876955 34.052731 53.066410 2.000000 -2.000000 0.000000 52.548851 107.470703 108.564003 -37.597019 -11.737808 -10.278888 -2.615704 -13.843902 -6.966299 -2.000000 2.000000 0.000000 -133.759766 -6.962891 -8.008995 -17.316191 21.513105 -96.999908 -2.538357 34.600994 -27.937819 -25.058714 -6.669338 13.574331 51.112370 -6.365623 -3.724956 -10.827540 9.105222 1.624828 -9.528538 -19.035669 -4.551374 79.094360 25.867365 12.480368 20.221380 -10.015702 18.018913 
-0.464498 46.016010 -14.323055 5.400391 -20.048828 111.744698 24.886280 -14.116914 3.212550 -14.013673 -4.101563 7.656250 27.556133 -55.689137 -5.884726 -26.240238 32.871090 48.486332 2.000000 -2.000000 0.000000 -125.517578 71.728516 -69.589844 -37.088329 -9.161309 -7.679708 -1.853210 -13.543627 -6.650706 -2.000000 2.000000 0.000000 -136.406250 0.957031 -11.386719 -14.447581 22.702591 -100.907097 -0.045062 32.346024 -27.671045 -23.410295 -6.787010 13.739631 46.991817 -5.699832 -3.369585 -7.548455 6.496787 -1.156388 -14.262888 -19.357969 -4.510581 85.058289 21.462849 11.780605 18.803076 -13.062788 9.977524 
-0.955963 47.197521 -13.743370 3.857421 -22.675781 114.453125 24.886280 -14.116914 3.212550 -15.292968 -4.960938 7.264781 30.868681 -54.496910 -5.662071 -29.189455 30.703125 43.291019 2.000000 -2.000000 0.000000 -119.306641 71.289063 -65.605469 -36.984528 -7.804657 -6.323576 -0.982862 -13.428527 -6.517168 -2.000000 2.000000 0.000000 -140.263672 12.861328 -18.212889 -13.284519 22.616755 -103.546425 4.311747 29.178352 -27.251169 -24.267263 -7.285104 13.523635 40.750008 -5.963454 -3.095780 -3.042623 5.599979 -2.462971 -22.829134 -18.522814 -3.836705 88.412834 16.073690 10.648167 17.604200 -19.361633 14.266693 
-1.315536 48.710270 -12.852983 0.576172 -22.861328 118.720695 24.886280 -14.116914 3.212550 -13.828125 -4.541016 7.597657 33.257740 -52.526752 -5.338434 -32.080082 28.603514 37.851566 2.000000 -2.000000 0.000000 -109.892578 70.390625 -58.818359 -36.759033 -6.138097 -7.840727 -0.526921 -12.687124 -6.721110 -2.000000 2.000000 0.000000 -146.123047 28.203125 -30.346947 -13.795485 21.516823 -103.947815 6.394165 23.481482 -29.636297 -23.193151 -4.638429 14.341447 34.804565 -5.658907 -2.706565 8.333218 -3.404052 -6.783847 -28.387276 -15.048126 -2.391172 87.295670 12.977770 9.815573 13.533687 -24.174128 9.828824 
-1.514007 50.397617 -11.636078 -4.238281 -21.162107 127.109367 24.886280 -14.116914 3.212550 -10.224609 -3.544922 8.398438 37.220085 -47.418709 -4.554786 -35.947266 23.359373 29.456997 2.000000 -2.000000 0.000000 -93.066406 67.949219 -45.751949 -36.355721 -3.455091 -10.114733 2.119545 -11.906245 -7.113835 -2.000000 2.000000 0.000000 -157.382813 51.015625 -53.564453 -19.196083 12.498350 -93.272949 9.531801 18.404293 -31.566494 -22.131083 0.534378 15.880227 29.898327 -6.144238 -2.541613 20.536425 -16.126900 -20.698269 -30.745014 -11.384257 -1.080480 81.595253 13.944658 9.590146 14.413140 -24.471424 10.265799 
-1.521741 51.663445 -10.323745 -11.308593 -21.621094 138.707352 24.886280 -14.116914 3.212550 -10.869141 -3.212891 8.349062 39.625660 -38.337967 -3.419302 -38.261719 18.046873 22.617188 2.000000 -2.000000 0.000000 -64.296875 62.988285 -22.501068 -36.241985 -1.398786 -9.345695 4.149968 -11.071600 -7.232943 -2.000000 2.000000 0.000000 -4.394525 106.894531 91.073799 -21.967978 -0.261766 -80.188004 14.778152 16.645546 -31.134554 -27.244770 5.370376 16.602077 28.392159 -7.940464 -2.863488 25.241718 -18.477894 -39.515453 -35.949371 -9.588217 -0.266454 72.543610 15.399797 9.165134 19.537651 -22.438713 14.598831 
-1.217324 52.417553 -9.292355 -15.820313 -18.808594 150.898438 24.886280 -14.116914 3.212550 -8.554688 -2.812500 8.798827 40.183178 -27.139969 -2.318967 -39.531250 12.548828 17.482594 2.000000 -2.000000 0.000000 -43.857418 50.683598 -6.545179 -33.948528 2.643644 -9.107149 3.811409 -9.998429 -7.184187 -2.000000 2.000000 0.000000 25.458986 67.744148 119.911392 -21.661673 -9.491520 -74.208008 16.472801 10.718009 -33.224991 -30.703388 8.516109 17.004984 30.122002 -7.413348 -2.811712 22.209194 -17.745432 -33.780891 -36.618992 -8.993695 -0.078389 62.713799 15.098396 8.208277 22.958599 -18.724760 20.366117 
-0.681542 52.513138 -8.516132 -19.951174 -15.146485 162.216797 24.886280 -14.116914 3.212550 -7.890625 -1.474609 9.150390 39.806541 -16.250874 -1.431114 -38.994141 7.128906 14.189454 2.000000 -2.000000 0.000000 -32.548828 34.345703 0.947265 -29.148481 6.790909 -12.187873 5.260181 -10.168876 -7.758076 -2.000000 2.000000 0.000000 12.871094 35.214844 110.810547 -20.939157 -13.180904 -73.936996 18.062309 2.787034 -35.556583 -35.222481 12.205726 17.396954 34.087887 -5.465483 -2.622551 20.695421 -19.782015 -24.724461 -36.780849 -7.303545 0.427929 52.718933 12.110298 6.580050 26.262127 -10.774082 21.692154 
-0.099315 52.094200 -8.001685 157.334000 -167.880859 -7.726660 24.886280 -14.116914 3.212550 -8.427733 -1.328125 9.101336 39.374805 -5.635810 -0.626331 -38.681644 1.757813 11.367188 2.000000 -2.000000 0.000000 -24.531250 17.421877 7.083004 -24.972380 10.267690 -16.644627 6.782168 -10.942227 -8.366883 -2.000000 2.000000 0.000000 12.919922 8.037108 111.513672 -19.077698 -13.055684 -78.757942 18.852736 -6.468628 -39.070942 -39.534317 15.033812 17.459902 39.647163 -2.313426 -2.221879 23.083387 -21.482849 -18.865067 -37.752113 -5.849263 0.904823 46.356655 6.252474 4.631483 24.087460 0.544907 10.807869 
